<?xml version="1.0"?>
<svg xmlns="http://www.w3.org/2000/svg" viewBox="0 0 16 16" width="16px" height="16px">
    <path style="line-height:normal;text-indent:0;text-align:start;text-decoration-line:none;text-decoration-style:solid;text-decoration-color:#000;text-transform:none;block-progression:tb;isolation:auto;mix-blend-mode:normal" d="M 4 2 L 4 4 L 6 4 L 6 2 L 4 2 z M 7 2 L 7 4 L 9 4 L 9 2 L 7 2 z M 11.798828 4.671875 L 11.392578 4.9707031 C 11.392578 4.9707031 11.053225 5.2200353 10.716797 5.609375 C 10.380369 5.9987147 10 6.5518333 10 7.25 C 10 7.7413797 10.040129 7.7639122 10.080078 8 L 0.98046875 8 L 1 8.5195312 C 1.0543802 9.8790373 1.4753502 11.02501 2.125 11.923828 L 2.125 12 L 2.1855469 12 C 3.1289259 13.255243 4.5383295 13.994894 6.1230469 14 L 6.125 14 C 8.0138218 14 9.3239394 13.550097 10.285156 12.763672 C 11.178418 12.032845 11.728382 11.024085 12.292969 9.9433594 C 14.136797 9.7815275 14.949219 8.34375 14.949219 8.34375 L 15.119141 7.9960938 L 14.826172 7.7460938 C 14.826172 7.7460938 13.989973 7.1619174 12.888672 7.0859375 C 12.717559 6.0115932 12.09375 5.0820312 12.09375 5.0820312 L 11.798828 4.671875 z M 1 5 L 1 7 L 3 7 L 3 5 L 1 5 z M 4 5 L 4 7 L 6 7 L 6 5 L 4 5 z M 7 5 L 7 7 L 9 7 L 9 5 L 7 5 z M 11.503906 6.2324219 C 11.715377 6.6062682 12 6.9955924 12 7.5 L 12 8.0585938 L 12.554688 7.9960938 C 13.063443 7.9395652 13.472211 8.098904 13.771484 8.2597656 C 13.520879 8.5835418 13.070361 9 12 9 L 11.695312 9 L 11.554688 9.2714844 C 10.956003 10.432147 10.420627 11.361659 9.6523438 11.990234 C 8.8844078 12.618525 7.8617027 12.999656 6.1269531 13 C 5.1111488 12.996727 4.2059194 12.647345 3.5058594 12 L 5 12 L 5 11 L 2.7402344 11 C 2.4255238 10.438154 2.1964234 9.7777559 2.1015625 9 L 11.318359 9 L 11.099609 8.3417969 C 11.099609 8.3417969 11 8.077381 11 7.25 C 11 6.9481667 11.214584 6.5623322 11.472656 6.2636719 C 11.488776 6.2450199 11.487876 6.2501969 11.503906 6.2324219 z M 6.5 10 A 0.5 0.5 0 0 0 6 10.5 A 0.5 0.5 0 0 0 6.5 11 A 0.5 0.5 0 0 0 7 10.5 A 0.5 0.5 0 0 0 6.5 10 z" font-weight="400" font-family="sans-serif" white-space="normal" overflow="visible"/>
</svg>
