<?xml version="1.0" encoding="UTF-8" standalone="no"?>
<!DOCTYPE svg PUBLIC "-//W3C//DTD SVG 1.1//EN"
"http://www.w3.org/Graphics/SVG/1.1/DTD/svg11.dtd">


<!-- Page 1 -->
<svg x="0" y="0" width="520" height="135" viewBox="0 0 520 135" version="1.1" xmlns="http://www.w3.org/2000/svg" xmlns:xlink="http://www.w3.org/1999/xlink"
style="display: block;margin-left: auto;margin-right: auto;">
<defs>

<style type="text/css"><![CDATA[

.g0_1{
fill: #1D71B8;
}
.g1_1{
fill: #EF7D00;
}
.g2_1{
fill: rgba(255,255,255,1.0);
}

]]></style>

</defs>
<path fill-rule="evenodd" d="M0,133.7L122.6,109.5L74.6,1Z" class="g0_1" />
<path fill-rule="evenodd" d="M77.5,.7l47.7,108.2Z" class="g0_1" />
<path fill-rule="evenodd" d="M127,111.7l9.6,22.4l10.7,-26.7Z" class="g1_1" />
<path fill-rule="evenodd" d="M3.9,135.9l130.2,-.5l-10.3,-23Z" class="g1_1" />
<path d="M176.5,106.2H163.4V47.3h40l-2.1,11H176.5V70.8h23.6l-2.1,11H176.5Z" class="g0_1" />
<path d="M208.3,47.1H221v59.1H208.3V47.1Z" class="g0_1" />
<path d="M248.4,63.3c3.6,0,6.8,.4,9.4,1c2.5,.6,4.7,1.7,6.3,3.3c1.6,1.6,2.8,3.5,3.6,6.1c.7,2.6,1.1,5.7,1.1,9.5v4.4c0,3.8,-.4,7,-1.1,9.4c-.8,2.6,-2,4.7,-3.6,6.2c-1.6,1.5,-3.6,2.6,-6.3,3.3c-2.6,.6,-5.8,.9,-9.4,.9c-3.7,0,-6.9,-.3,-9.5,-.9c-2.5,-.7,-4.7,-1.8,-6.3,-3.3C231,101.6,229.8,99.6,229,97c-.7,-2.5,-1.1,-5.7,-1.1,-9.4V83.2c0,-3.8,.4,-6.9,1.1,-9.5c.8,-2.6,2,-4.6,3.6,-6.1c1.6,-1.6,3.8,-2.6,6.3,-3.3c2.6,-.6,5.8,-1,9.5,-1Zm7.7,19.6c0,-2.1,-.2,-3.7,-.4,-5c-.3,-1.3,-.6,-2.2,-1.2,-2.9c-.6,-.6,-1.4,-1.1,-2.4,-1.3c-.9,-.2,-2.2,-.4,-3.7,-.4c-1.6,0,-2.9,.2,-3.8,.4c-1,.2,-1.7,.7,-2.4,1.3c-.6,.7,-.9,1.6,-1.2,2.9c-.2,1.2,-.3,2.9,-.3,5V88c0,2.1,.1,3.8,.3,5c.3,1.2,.6,2.2,1.2,2.9c.7,.7,1.4,1.1,2.4,1.4c.9,.2,2.2,.4,3.8,.4c1.5,0,2.8,-.2,3.7,-.4c1,-.3,1.8,-.7,2.4,-1.4c.6,-.6,.9,-1.5,1.2,-2.9c.2,-1.2,.4,-2.9,.4,-5Z" class="g0_1" />
<path d="M314.2,93.1l6.1,-28.4h12.3l-12.1,41.5H308.2L302,79.9l-6.3,26.3H282.9L271,64.7h12.8l6,28.3l6.8,-28.3h10.9Z" class="g0_1" />
<path d="M385.6,106.2h-31l1.9,-9.8h8.3V61.8H354.7l1.9,-9.7h21.1V96.4h9.9Z" class="g1_1" />
<path d="M409.2,86.7c-.9,.3,-1.6,.7,-2.2,1.2c-.6,.5,-1,1,-1.3,1.4c-.4,.7,-.5,1.4,-.8,2.1c-.1,.9,-.2,1.9,-.2,3v1.5h25.4l-1.8,10.3H392V96.8c0,-2.8,.2,-5.1,.6,-7.2c.3,-2,1.1,-3.8,2.1,-5.3c.9,-1.4,2.2,-2.8,3.6,-3.9c1.5,-1.1,3.3,-2.1,5.5,-3l8.8,-3.8c2,-.9,3.2,-1.6,3.8,-2.3c.6,-.8,1,-2.1,1,-3.8c0,-2,-.5,-3.3,-1.4,-4.2c-.8,-.7,-2.4,-1.1,-4.7,-1.1h-8.9c-3.5,0,-6.5,.1,-9.5,.1l1.8,-10.1c2.6,0,5.6,-.1,8.8,-.1h8.9c6.2,0,10.7,1.2,13.4,3.5c2.7,2.5,4.1,5.9,4.1,10.3v1.2c0,3.7,-.9,6.7,-2.5,9.2c-1.6,2.4,-4.3,4.5,-8.1,6Z" class="g1_1" />
<path d="M437.8,52.1c2.7,0,5.5,-.2,8.4,-.2H456c5.6,0,9.8,1.3,12.5,3.7c2.7,2.5,4,5.6,4,9.8v1.5c0,2.9,-.5,5.2,-1.6,6.9c-1,1.7,-2.7,3.1,-4.9,4.2c2.6,1,4.4,2.3,5.8,4.3c1.2,1.8,1.8,4.4,1.8,7.5v1.7c0,4.9,-1.6,8.6,-4.6,11.2c-3.2,2.5,-8.1,3.8,-14.9,3.8h-9.8c-3.2,0,-6.4,0,-9.6,-.2l2,-10c2.3,0,5,.1,8.1,.1h9.5c2.3,0,3.9,-.5,4.9,-1.3c1,-.9,1.5,-2.3,1.5,-4.3V89.6c0,-2.1,-.5,-3.6,-1.6,-4.4c-1,-.9,-2.8,-1.4,-5.3,-1.4h-15l1.8,-9.7h13.1c4,0,6,-1.7,6,-5.2V67.7c0,-1.9,-.5,-3.3,-1.4,-4.1c-.9,-.9,-2.4,-1.4,-4.6,-1.4h-8.3c-3.1,0,-6.1,0,-9.3,.1Z" class="g1_1" />
<path d="M499.6,106.2c-3.9,0,-7.2,-.4,-9.7,-1c-2.6,-.6,-4.7,-1.7,-6.3,-3.3c-1.6,-1.6,-2.7,-3.5,-3.3,-6c-.6,-2.4,-.9,-5.5,-.9,-9.1V83.1c0,-3.7,.3,-6.7,1.1,-9.2c.7,-2.5,1.8,-4.5,3.3,-6.1c1.4,-1.6,3.4,-2.7,5.7,-3.4c2.3,-.7,5,-1.1,8.2,-1.1c1.9,0,3.9,.3,5.7,.6c1.9,.4,3.2,1,4.2,1.7V47.1h12.7V98c0,3.1,-.7,5.3,-2.1,6.4c-1.3,1.2,-3.6,1.8,-7.1,1.8Zm8,-9.9V81.5c0,-1.7,-.1,-3,-.4,-4.1c-.2,-1.1,-.6,-2,-1.2,-2.6c-.6,-.6,-1.5,-1,-2.4,-1.2c-1,-.3,-2.2,-.4,-3.7,-.4c-1.6,0,-2.8,.1,-3.8,.4c-1,.2,-1.7,.7,-2.3,1.4c-.6,.8,-1,1.6,-1.1,2.9c-.1,1.2,-.4,2.8,-.4,4.7v3.8c0,2.1,.1,3.7,.4,5c.2,1.2,.6,2.2,1.1,3c.6,.7,1.3,1.2,2.3,1.4c1,.3,2.3,.4,3.8,.4h7.7Z" class="g1_1" />
<path d="M38.1,97.8L28.4,116L77.9,106L76.4,90.2Z" class="g2_1" />
<path d="M71.9,35.4L60.9,56L73.5,53.5L72.1,37.2Z" class="g2_1" />
<path fill-rule="evenodd" d="M125.6,109l21.3,-4.4L77.2,0Z" class="g0_1" />
<path d="M176.5,106.2H163.4V47.3h40l-2.1,11H176.5V70.8h23.6l-2.1,11H176.5Z" class="g0_1" />
<path d="M208.3,47.1H221v59.1H208.3V47.1Z" class="g0_1" />
<path d="M248.4,63.3c3.6,0,6.8,.4,9.4,1c2.5,.6,4.7,1.7,6.3,3.3c1.6,1.6,2.8,3.5,3.6,6.1c.7,2.6,1.1,5.7,1.1,9.5v4.4c0,3.8,-.4,7,-1.1,9.4c-.8,2.6,-2,4.7,-3.6,6.2c-1.6,1.5,-3.6,2.6,-6.3,3.3c-2.6,.6,-5.8,.9,-9.4,.9c-3.7,0,-6.9,-.3,-9.5,-.9c-2.5,-.7,-4.7,-1.8,-6.3,-3.3C231,101.6,229.8,99.6,229,97c-.7,-2.5,-1.1,-5.7,-1.1,-9.4V83.2c0,-3.8,.4,-6.9,1.1,-9.5c.8,-2.6,2,-4.6,3.6,-6.1c1.6,-1.6,3.8,-2.6,6.3,-3.3c2.6,-.6,5.8,-1,9.5,-1Zm7.7,19.6c0,-2.1,-.2,-3.7,-.4,-5c-.3,-1.3,-.6,-2.2,-1.2,-2.9c-.6,-.6,-1.4,-1.1,-2.4,-1.3c-.9,-.2,-2.2,-.4,-3.7,-.4c-1.6,0,-2.9,.2,-3.8,.4c-1,.2,-1.7,.7,-2.4,1.3c-.6,.7,-.9,1.6,-1.2,2.9c-.2,1.2,-.3,2.9,-.3,5V88c0,2.1,.1,3.8,.3,5c.3,1.2,.6,2.2,1.2,2.9c.7,.7,1.4,1.1,2.4,1.4c.9,.2,2.2,.4,3.8,.4c1.5,0,2.8,-.2,3.7,-.4c1,-.3,1.8,-.7,2.4,-1.4c.6,-.6,.9,-1.5,1.2,-2.9c.2,-1.2,.4,-2.9,.4,-5Z" class="g0_1" />
<path d="M314.2,93.1l6.1,-28.4h12.3l-12.1,41.5H308.2L302,79.9l-6.3,26.3H282.9L271,64.7h12.8l6,28.3l6.8,-28.3h10.9Z" class="g0_1" />
<path d="M385.6,106.2h-31l1.9,-9.8h8.3V61.8H354.7l1.9,-9.7h21.1V96.4h9.9Z" class="g1_1" />
<path d="M409.2,86.7c-.9,.3,-1.6,.7,-2.2,1.2c-.6,.5,-1,1,-1.3,1.4c-.4,.7,-.5,1.4,-.8,2.1c-.1,.9,-.2,1.9,-.2,3v1.5h25.4l-1.8,10.3H392V96.8c0,-2.8,.2,-5.1,.6,-7.2c.3,-2,1.1,-3.8,2.1,-5.3c.9,-1.4,2.2,-2.8,3.6,-3.9c1.5,-1.1,3.3,-2.1,5.5,-3l8.8,-3.8c2,-.9,3.2,-1.6,3.8,-2.3c.6,-.8,1,-2.1,1,-3.8c0,-2,-.5,-3.3,-1.4,-4.2c-.8,-.7,-2.4,-1.1,-4.7,-1.1h-8.9c-3.5,0,-6.5,.1,-9.5,.1l1.8,-10.1c2.6,0,5.6,-.1,8.8,-.1h8.9c6.2,0,10.7,1.2,13.4,3.5c2.7,2.5,4.1,5.9,4.1,10.3v1.2c0,3.7,-.9,6.7,-2.5,9.2c-1.6,2.4,-4.3,4.5,-8.1,6Z" class="g1_1" />
<path d="M437.8,52.1c2.7,0,5.5,-.2,8.4,-.2H456c5.6,0,9.8,1.3,12.5,3.7c2.7,2.5,4,5.6,4,9.8v1.5c0,2.9,-.5,5.2,-1.6,6.9c-1,1.7,-2.7,3.1,-4.9,4.2c2.6,1,4.4,2.3,5.8,4.3c1.2,1.8,1.8,4.4,1.8,7.5v1.7c0,4.9,-1.6,8.6,-4.6,11.2c-3.2,2.5,-8.1,3.8,-14.9,3.8h-9.8c-3.2,0,-6.4,0,-9.6,-.2l2,-10c2.3,0,5,.1,8.1,.1h9.5c2.3,0,3.9,-.5,4.9,-1.3c1,-.9,1.5,-2.3,1.5,-4.3V89.6c0,-2.1,-.5,-3.6,-1.6,-4.4c-1,-.9,-2.8,-1.4,-5.3,-1.4h-15l1.8,-9.7h13.1c4,0,6,-1.7,6,-5.2V67.7c0,-1.9,-.5,-3.3,-1.4,-4.1c-.9,-.9,-2.4,-1.4,-4.6,-1.4h-8.3c-3.1,0,-6.1,0,-9.3,.1Z" class="g1_1" />
<path d="M499.6,106.2c-3.9,0,-7.2,-.4,-9.7,-1c-2.6,-.6,-4.7,-1.7,-6.3,-3.3c-1.6,-1.6,-2.7,-3.5,-3.3,-6c-.6,-2.4,-.9,-5.5,-.9,-9.1V83.1c0,-3.7,.3,-6.7,1.1,-9.2c.7,-2.5,1.8,-4.5,3.3,-6.1c1.4,-1.6,3.4,-2.7,5.7,-3.4c2.3,-.7,5,-1.1,8.2,-1.1c1.9,0,3.9,.3,5.7,.6c1.9,.4,3.2,1,4.2,1.7V47.1h12.7V98c0,3.1,-.7,5.3,-2.1,6.4c-1.3,1.2,-3.6,1.8,-7.1,1.8Zm8,-9.9V81.5c0,-1.7,-.1,-3,-.4,-4.1c-.2,-1.1,-.6,-2,-1.2,-2.6c-.6,-.6,-1.5,-1,-2.4,-1.2c-1,-.3,-2.2,-.4,-3.7,-.4c-1.6,0,-2.8,.1,-3.8,.4c-1,.2,-1.7,.7,-2.3,1.4c-.6,.8,-1,1.6,-1.1,2.9c-.1,1.2,-.4,2.8,-.4,4.7v3.8c0,2.1,.1,3.7,.4,5c.2,1.2,.6,2.2,1.1,3c.6,.7,1.3,1.2,2.3,1.4c1,.3,2.3,.4,3.8,.4h7.7Z" class="g1_1" />
<path d="M54.9,67.3L45.2,85.2L75.4,78.8L74.1,63.3Z" class="g2_1" />

</svg>
