<svg id="Vrstva_1" data-name="Vrstva 1" xmlns="http://www.w3.org/2000/svg" viewBox="0 0 439.37 141.73"><defs><style>.cls-1{fill:none;}.cls-2{fill:#fff;}</style></defs><title>Kreslicí plátno 1</title><polyline points="70.03 14.12 10.13 120.82 108.73 101.42"/><line class="cls-1" x1="72.44" y1="13.92" x2="110.74" y2="100.92"/><polyline points="112.23 103.12 120.03 121.12 128.53 99.72"/><polygon points="13.23 122.62 117.94 122.22 109.73 103.72 13.23 122.62"/><path d="M152,98.72h-10.6V51.32h32.2l-1.7,8.9h-20v10h19l-1.7,8.9H152Z"/><path d="M177.64,51.22h10.2v47.5h-10.2V51.22Z"/><path d="M209.84,64.22a32.8,32.8,0,0,1,7.6.8,11.22,11.22,0,0,1,5.1,2.6,10.73,10.73,0,0,1,2.8,4.9,27.55,27.55,0,0,1,.9,7.7v3.5a27.28,27.28,0,0,1-.9,7.6,10.73,10.73,0,0,1-2.8,4.9,12.4,12.4,0,0,1-5.1,2.7,36.5,36.5,0,0,1-15.2,0,10.45,10.45,0,0,1-5.1-2.7,10.87,10.87,0,0,1-2.9-4.9,27.28,27.28,0,0,1-.9-7.6v-3.5a28,28,0,0,1,.9-7.7,10.87,10.87,0,0,1,2.9-4.9,11.22,11.22,0,0,1,5.1-2.6A32.8,32.8,0,0,1,209.84,64.22Zm6.2,15.7a21,21,0,0,0-.3-4,4.46,4.46,0,0,0-1-2.3,4,4,0,0,0-1.9-1.1,12.62,12.62,0,0,0-3-.3,12.06,12.06,0,0,0-3,.3,4,4,0,0,0-1.9,1.1,4.46,4.46,0,0,0-1,2.3,21,21,0,0,0-.3,4V84a21,21,0,0,0,.3,4,4.46,4.46,0,0,0,1,2.3,4,4,0,0,0,1.9,1.1,15.15,15.15,0,0,0,6,0,4,4,0,0,0,1.9-1.1,4.46,4.46,0,0,0,1-2.3,21.74,21.74,0,0,0,.3-4Z"/><path d="M262.84,88.12l4.9-22.9h9.9l-9.7,33.5H258l-5-21.1-5.1,21.1h-10.2l-9.6-33.5h10.3l4.8,22.8,5.5-22.8h8.8Z"/><path d="M320.24,98.72h-25l1.5-7.9h6.7V63h-8.1l1.5-7.9h16.9v35.6h8Z"/><path d="M339.24,83a7.68,7.68,0,0,0-1.8,1,3.18,3.18,0,0,0-1.1,1.2,4.25,4.25,0,0,0-.5,1.7,15.15,15.15,0,0,0-.2,2.3v1.3h20.5l-1.5,8.3h-29.2v-7.6a33,33,0,0,1,.5-5.8,12.49,12.49,0,0,1,1.7-4.3,11.07,11.07,0,0,1,3-3.1,25.54,25.54,0,0,1,4.4-2.5l7-3.1a8.28,8.28,0,0,0,3.1-1.9,4.68,4.68,0,0,0,.8-3,4.21,4.21,0,0,0-1.1-3.3,6,6,0,0,0-3.8-.9h-7.2c-2.7,0-5.2.1-7.6.1l1.4-8.2c2.1,0,4.5-.1,7.1-.1h7.2c5,0,8.6,1,10.8,2.9s3.3,4.7,3.3,8.3v1a13.36,13.36,0,0,1-1.9,7.4,12.93,12.93,0,0,1-6.5,4.8Z"/><path d="M362.24,55.22c2.2,0,4.4-.1,6.8-.1h7.9c4.6,0,7.9,1,10,2.9a10.17,10.17,0,0,1,3.2,7.8V67a10.84,10.84,0,0,1-1.2,5.6,8.06,8.06,0,0,1-3.9,3.3,9.62,9.62,0,0,1,4.6,3.4,10.66,10.66,0,0,1,1.5,6v1.4c0,3.9-1.3,6.9-3.8,8.9s-6.5,3-12,3h-7.8c-2.5,0-5.1,0-7.6-.1l1.5-8.1c1.9,0,4,.1,6.5.1h7.7a6.16,6.16,0,0,0,4-1.1,4.49,4.49,0,0,0,1.2-3.5v-1a4.59,4.59,0,0,0-1.2-3.6,6.74,6.74,0,0,0-4.3-1.1H363l1.5-7.9h10.4c3.2,0,4.9-1.4,4.9-4.1v-1a4.78,4.78,0,0,0-1.1-3.4,5.27,5.27,0,0,0-3.7-1.1h-6.7c-2.5,0-5,0-7.5.1Z"/><path d="M412,98.72a32.79,32.79,0,0,1-7.8-.8,10.11,10.11,0,0,1-5-2.7,10.25,10.25,0,0,1-2.7-4.8,30.1,30.1,0,0,1-.8-7.3v-2.9a26.26,26.26,0,0,1,.9-7.4,11.58,11.58,0,0,1,2.7-4.9,10.22,10.22,0,0,1,4.6-2.8,21.49,21.49,0,0,1,6.6-.9,23.15,23.15,0,0,1,4.6.5,9.67,9.67,0,0,1,3.4,1.4v-15h10.2v41c0,2.5-.5,4.2-1.6,5.2s-3,1.4-5.7,1.4H412Zm6.3-8V78.82a14.24,14.24,0,0,0-.3-3.3,3.79,3.79,0,0,0-1-2,3.86,3.86,0,0,0-1.9-1,12.62,12.62,0,0,0-3-.3,12.06,12.06,0,0,0-3,.3,3.47,3.47,0,0,0-1.9,1.2,4.83,4.83,0,0,0-.9,2.3,20.15,20.15,0,0,0-.3,3.8v3.1a21,21,0,0,0,.3,4,6.69,6.69,0,0,0,.9,2.4,3.15,3.15,0,0,0,1.9,1.2,13,13,0,0,0,3.1.3h6.1Z"/><polygon class="cls-2" points="40.73 91.92 32.94 106.62 72.73 98.52 71.53 85.92 40.73 91.92"/><polygon class="cls-2" points="67.83 41.82 59.03 58.32 69.14 56.32 68.03 43.22 67.83 41.82"/><polygon points="111.14 100.92 128.24 97.42 72.23 13.22 111.14 100.92"/><path d="M152,98.72h-10.6V51.32h32.2l-1.7,8.9h-20v10h19l-1.7,8.9H152Z"/><path d="M177.64,51.22h10.2v47.5h-10.2V51.22Z"/><path d="M209.84,64.22a32.8,32.8,0,0,1,7.6.8,11.22,11.22,0,0,1,5.1,2.6,10.73,10.73,0,0,1,2.8,4.9,27.55,27.55,0,0,1,.9,7.7v3.5a27.28,27.28,0,0,1-.9,7.6,10.73,10.73,0,0,1-2.8,4.9,12.4,12.4,0,0,1-5.1,2.7,36.5,36.5,0,0,1-15.2,0,10.45,10.45,0,0,1-5.1-2.7,10.87,10.87,0,0,1-2.9-4.9,27.28,27.28,0,0,1-.9-7.6v-3.5a28,28,0,0,1,.9-7.7,10.87,10.87,0,0,1,2.9-4.9,11.22,11.22,0,0,1,5.1-2.6A32.8,32.8,0,0,1,209.84,64.22Zm6.2,15.7a21,21,0,0,0-.3-4,4.46,4.46,0,0,0-1-2.3,4,4,0,0,0-1.9-1.1,12.62,12.62,0,0,0-3-.3,12.06,12.06,0,0,0-3,.3,4,4,0,0,0-1.9,1.1,4.46,4.46,0,0,0-1,2.3,21,21,0,0,0-.3,4V84a21,21,0,0,0,.3,4,4.46,4.46,0,0,0,1,2.3,4,4,0,0,0,1.9,1.1,15.15,15.15,0,0,0,6,0,4,4,0,0,0,1.9-1.1,4.46,4.46,0,0,0,1-2.3,21.74,21.74,0,0,0,.3-4Z"/><path d="M262.84,88.12l4.9-22.9h9.9l-9.7,33.5H258l-5-21.1-5.1,21.1h-10.2l-9.6-33.5h10.3l4.8,22.8,5.5-22.8h8.8Z"/><path d="M320.24,98.72h-25l1.5-7.9h6.7V63h-8.1l1.5-7.9h16.9v35.6h8Z"/><path d="M339.24,83a7.68,7.68,0,0,0-1.8,1,3.18,3.18,0,0,0-1.1,1.2,4.25,4.25,0,0,0-.5,1.7,15.15,15.15,0,0,0-.2,2.3v1.3h20.5l-1.5,8.3h-29.2v-7.6a33,33,0,0,1,.5-5.8,12.49,12.49,0,0,1,1.7-4.3,11.07,11.07,0,0,1,3-3.1,25.54,25.54,0,0,1,4.4-2.5l7-3.1a8.28,8.28,0,0,0,3.1-1.9,4.68,4.68,0,0,0,.8-3,4.21,4.21,0,0,0-1.1-3.3,6,6,0,0,0-3.8-.9h-7.2c-2.7,0-5.2.1-7.6.1l1.4-8.2c2.1,0,4.5-.1,7.1-.1h7.2c5,0,8.6,1,10.8,2.9s3.3,4.7,3.3,8.3v1a13.36,13.36,0,0,1-1.9,7.4,12.93,12.93,0,0,1-6.5,4.8Z"/><path d="M362.24,55.22c2.2,0,4.4-.1,6.8-.1h7.9c4.6,0,7.9,1,10,2.9a10.17,10.17,0,0,1,3.2,7.8V67a10.84,10.84,0,0,1-1.2,5.6,8.06,8.06,0,0,1-3.9,3.3,9.62,9.62,0,0,1,4.6,3.4,10.66,10.66,0,0,1,1.5,6v1.4c0,3.9-1.3,6.9-3.8,8.9s-6.5,3-12,3h-7.8c-2.5,0-5.1,0-7.6-.1l1.5-8.1c1.9,0,4,.1,6.5.1h7.7a6.16,6.16,0,0,0,4-1.1,4.49,4.49,0,0,0,1.2-3.5v-1a4.59,4.59,0,0,0-1.2-3.6,6.74,6.74,0,0,0-4.3-1.1H363l1.5-7.9h10.4c3.2,0,4.9-1.4,4.9-4.1v-1a4.78,4.78,0,0,0-1.1-3.4,5.27,5.27,0,0,0-3.7-1.1h-6.7c-2.5,0-5,0-7.5.1Z"/><path d="M412,98.72a32.79,32.79,0,0,1-7.8-.8,10.11,10.11,0,0,1-5-2.7,10.25,10.25,0,0,1-2.7-4.8,30.1,30.1,0,0,1-.8-7.3v-2.9a26.26,26.26,0,0,1,.9-7.4,11.58,11.58,0,0,1,2.7-4.9,10.22,10.22,0,0,1,4.6-2.8,21.49,21.49,0,0,1,6.6-.9,23.15,23.15,0,0,1,4.6.5,9.67,9.67,0,0,1,3.4,1.4v-15h10.2v41c0,2.5-.5,4.2-1.6,5.2s-3,1.4-5.7,1.4H412Zm6.3-8V78.82a14.24,14.24,0,0,0-.3-3.3,3.79,3.79,0,0,0-1-2,3.86,3.86,0,0,0-1.9-1,12.62,12.62,0,0,0-3-.3,12.06,12.06,0,0,0-3,.3,3.47,3.47,0,0,0-1.9,1.2,4.83,4.83,0,0,0-.9,2.3,20.15,20.15,0,0,0-.3,3.8v3.1a21,21,0,0,0,.3,4,6.69,6.69,0,0,0,.9,2.4,3.15,3.15,0,0,0,1.9,1.2,13,13,0,0,0,3.1.3h6.1Z"/><polygon class="cls-2" points="54.23 67.42 46.44 81.72 70.73 76.72 69.64 64.22 54.23 67.42"/></svg>