<?xml version="1.0" encoding="utf-8"?>
<!-- Generator: Adobe Illustrator 21.1.0, SVG Export Plug-In . SVG Version: 6.00 Build 0)  -->
<svg version="1.1" id="Vrstva_1" xmlns="http://www.w3.org/2000/svg" xmlns:xlink="http://www.w3.org/1999/xlink" x="0px" y="0px"
	 viewBox="0 0 439.4 155.9" style="enable-background:new 0 0 439.4 155.9;" xml:space="preserve">
<style type="text/css">
	.st0{fill:#1D71B8;}
	.st1{fill:none;}
	.st2{fill:#EF7D00;}
	.st3{fill:#FFFFFF;}
</style>
<title>Kreslicí plátno 1</title>
<polygon class="st0" points="6.8,126.1 107.1,106.3 67.8,17.5 "/>
<line class="st1" x1="70.2" y1="17.3" x2="109.2" y2="105.8"/>
<polyline class="st2" points="110.7,108.1 118.6,126.4 127.3,104.6 "/>
<polygon class="st2" points="10,127.9 116.5,127.5 108.1,108.7 "/>
<path class="st0" d="M151.2,103.6h-10.7V55.4h32.7l-1.7,9h-20.3v10.2h19.3l-1.7,9h-17.6V103.6z"/>
<path class="st0" d="M177.2,55.2h10.4v48.4h-10.4V55.2z"/>
<path class="st0" d="M210,68.5c2.6,0,5.2,0.2,7.7,0.8c1.9,0.4,3.7,1.3,5.2,2.7c1.4,1.4,2.4,3.1,2.9,5c0.7,2.5,1,5.2,0.9,7.8v3.6
	c0.1,2.6-0.2,5.2-0.9,7.7c-0.5,1.9-1.5,3.6-2.9,5c-1.4,1.4-3.2,2.3-5.2,2.7c-5.1,1.1-10.3,1.1-15.4,0c-1.9-0.4-3.7-1.3-5.2-2.7
	c-1.4-1.4-2.4-3.1-2.9-5c-0.6-2.5-1-5.1-0.9-7.7v-3.6c-0.1-2.6,0.2-5.3,0.9-7.8c0.5-1.9,1.5-3.6,2.9-5c1.5-1.3,3.3-2.3,5.2-2.7
	C204.9,68.7,207.4,68.5,210,68.5z M216.3,84.5c0-1.4-0.1-2.7-0.3-4.1c-0.1-0.8-0.5-1.6-1-2.3c-0.5-0.5-1.2-0.9-1.9-1.1
	c-2-0.4-4.2-0.4-6.2,0c-0.7,0.2-1.4,0.6-1.9,1.1c-0.5,0.7-0.9,1.5-1,2.3c-0.2,1.4-0.3,2.7-0.3,4.1v4.2c0,1.4,0.1,2.7,0.3,4.1
	c0.1,0.9,0.5,1.7,1,2.4c0.5,0.5,1.2,0.9,1.9,1.1c2,0.4,4.2,0.4,6.2,0c0.7-0.2,1.4-0.6,1.9-1.1c0.6-0.7,0.9-1.5,1-2.4
	c0.2-1.4,0.3-2.7,0.3-4.1V84.5z"/>
<path class="st0" d="M263.9,92.9l5-23.3h10l-9.9,34h-10l-5.1-21.5l-5.2,21.5h-10.4l-9.8-34H239l4.9,23.2l5.6-23.2h8.9L263.9,92.9z"
	/>
<path class="st2" d="M322.3,103.6h-25.4l1.6-8h6.8V67.3H297l1.6-8h17.2v36.3h8.1L322.3,103.6z"/>
<path class="st2" d="M341.6,87.6c-0.6,0.3-1.2,0.6-1.8,1c-0.4,0.3-0.8,0.8-1.1,1.2c-0.3,0.5-0.5,1.1-0.6,1.7
	c-0.1,0.8-0.2,1.6-0.2,2.4v1.3h20.8l-1.5,8.4h-29.7v-7.7c0-2,0.2-4,0.5-5.9c0.3-1.5,0.9-3,1.7-4.3c0.8-1.2,1.8-2.3,3-3.2
	c1.4-1,2.9-1.8,4.5-2.5l7.2-3.1c1.2-0.4,2.2-1.1,3.1-1.9c0.6-0.9,0.9-2,0.8-3.1c0.1-1.2-0.3-2.5-1.1-3.4c-0.7-0.6-2-0.9-3.9-0.9H336
	c-2.8,0-5.3,0.1-7.7,0.1l1.4-8.3c2.2,0,4.6-0.1,7.2-0.1h7.3c5.1,0,8.8,1,11,2.9c2.2,1.9,3.3,4.8,3.3,8.4v1c0.1,2.6-0.6,5.2-2,7.5
	c-1.6,2.3-3.9,4-6.6,4.9L341.6,87.6z"/>
<path class="st2" d="M365,59.3c2.2,0,4.5-0.1,6.9-0.1h8c4.6,0,8,1,10.2,3c2.2,2,3.4,5,3.3,8v1.2c0.1,2-0.3,4-1.3,5.7
	c-1,1.5-2.4,2.7-4,3.4c1.9,0.6,3.5,1.9,4.7,3.5c1.1,1.9,1.6,4,1.5,6.2v1.4c0,4-1.3,7-3.8,9.1s-6.6,3.1-12.2,3.1h-8
	c-2.6,0-5.2,0-7.8-0.1l1.6-8.2c1.9,0,4.1,0.1,6.6,0.1h7.8c1.4,0.1,2.8-0.3,4-1.1c0.9-0.9,1.3-2.2,1.2-3.5v-1c0-1.7-0.4-2.9-1.3-3.6
	c-1.3-0.8-2.8-1.2-4.3-1.1h-12.3l1.5-8H378c3.3,0,4.9-1.4,4.9-4.2v-1c0.1-1.2-0.3-2.5-1.1-3.4c-1.1-0.8-2.4-1.2-3.8-1.1h-6.8
	c-2.5,0-5,0-7.6,0.1L365,59.3z"/>
<path class="st2" d="M415.6,103.6c-2.7,0-5.4-0.2-8-0.8c-1.9-0.4-3.7-1.3-5.1-2.7c-1.3-1.4-2.3-3-2.7-4.9c-0.6-2.5-0.8-5-0.8-7.5v-3
	c-0.1-2.5,0.2-5.1,0.9-7.5c0.5-1.9,1.4-3.6,2.7-5c1.3-1.3,2.9-2.3,4.7-2.8c2.2-0.6,4.4-0.9,6.7-0.9c1.6,0,3.2,0.2,4.7,0.5
	c1.2,0.2,2.4,0.7,3.4,1.4V55.2h10.4v41.7c0,2.5-0.6,4.3-1.7,5.2s-3,1.5-5.8,1.5L415.6,103.6L415.6,103.6z M422.1,95.5V83.4
	c0-1.1-0.1-2.3-0.3-3.4c-0.1-0.8-0.5-1.5-1-2.1c-0.6-0.5-1.3-0.9-2-1c-1-0.2-2-0.3-3-0.3c-1,0-2.1,0.1-3.1,0.3
	c-0.7,0.2-1.4,0.6-1.9,1.2c-0.5,0.7-0.9,1.5-0.9,2.3c-0.2,1.3-0.3,2.6-0.3,3.9v3.1c0,1.4,0.1,2.7,0.3,4.1c0.1,0.9,0.4,1.7,0.9,2.4
	c0.5,0.6,1.2,1,1.9,1.2c1,0.2,2.1,0.3,3.1,0.3L422.1,95.5L422.1,95.5z"/>
<polygon class="st3" points="38,96.7 30,111.6 70.5,103.4 69.3,90.5 "/>
<polygon class="st3" points="65.6,45.7 56.6,62.5 66.9,60.5 65.8,47.1 "/>
<polygon class="st0" points="109.6,105.9 127,102.3 70,16.7 "/>
<path class="st0" d="M151.2,103.6h-10.7V55.4h32.7l-1.7,9h-20.3v10.2h19.3l-1.7,9h-17.6V103.6z"/>
<path class="st0" d="M177.2,55.2h10.4v48.4h-10.4V55.2z"/>
<path class="st0" d="M210,68.5c2.6,0,5.2,0.2,7.7,0.8c1.9,0.4,3.7,1.3,5.2,2.7c1.4,1.4,2.4,3.1,2.9,5c0.7,2.5,1,5.2,0.9,7.8v3.6
	c0.1,2.6-0.2,5.2-0.9,7.7c-0.5,1.9-1.5,3.6-2.9,5c-1.4,1.4-3.2,2.3-5.2,2.7c-5.1,1.1-10.3,1.1-15.4,0c-1.9-0.4-3.7-1.3-5.2-2.7
	c-1.4-1.4-2.4-3.1-2.9-5c-0.6-2.5-1-5.1-0.9-7.7v-3.6c-0.1-2.6,0.2-5.3,0.9-7.8c0.5-1.9,1.5-3.6,2.9-5c1.5-1.3,3.3-2.3,5.2-2.7
	C204.9,68.7,207.4,68.5,210,68.5z M216.3,84.5c0-1.4-0.1-2.7-0.3-4.1c-0.1-0.8-0.5-1.6-1-2.3c-0.5-0.5-1.2-0.9-1.9-1.1
	c-2-0.4-4.2-0.4-6.2,0c-0.7,0.2-1.4,0.6-1.9,1.1c-0.5,0.7-0.9,1.5-1,2.3c-0.2,1.4-0.3,2.7-0.3,4.1v4.2c0,1.4,0.1,2.7,0.3,4.1
	c0.1,0.9,0.5,1.7,1,2.4c0.5,0.5,1.2,0.9,1.9,1.1c2,0.4,4.2,0.4,6.2,0c0.7-0.2,1.4-0.6,1.9-1.1c0.6-0.7,0.9-1.5,1-2.4
	c0.2-1.4,0.3-2.7,0.3-4.1V84.5z"/>
<path class="st0" d="M263.9,92.9l5-23.3h10l-9.9,34h-10l-5.1-21.5l-5.2,21.5h-10.4l-9.8-34H239l4.9,23.2l5.6-23.2h8.9L263.9,92.9z"
	/>
<path class="st2" d="M322.3,103.6h-25.4l1.6-8h6.8V67.3H297l1.6-8h17.2v36.3h8.1L322.3,103.6z"/>
<path class="st2" d="M341.6,87.6c-0.6,0.3-1.2,0.6-1.8,1c-0.4,0.3-0.8,0.8-1.1,1.2c-0.3,0.5-0.5,1.1-0.6,1.7
	c-0.1,0.8-0.2,1.6-0.2,2.4v1.3h20.8l-1.5,8.4h-29.7v-7.7c0-2,0.2-4,0.5-5.9c0.3-1.5,0.9-3,1.7-4.3c0.8-1.2,1.8-2.3,3-3.2
	c1.4-1,2.9-1.8,4.5-2.5l7.2-3.1c1.2-0.4,2.2-1.1,3.1-1.9c0.6-0.9,0.9-2,0.8-3.1c0.1-1.2-0.3-2.5-1.1-3.4c-0.7-0.6-2-0.9-3.9-0.9H336
	c-2.8,0-5.3,0.1-7.7,0.1l1.4-8.3c2.2,0,4.6-0.1,7.2-0.1h7.3c5.1,0,8.8,1,11,2.9c2.2,1.9,3.3,4.8,3.3,8.4v1c0.1,2.6-0.6,5.2-2,7.5
	c-1.6,2.3-3.9,4-6.6,4.9L341.6,87.6z"/>
<path class="st2" d="M365,59.3c2.2,0,4.5-0.1,6.9-0.1h8c4.6,0,8,1,10.2,3c2.2,2,3.4,5,3.3,8v1.2c0.1,2-0.3,4-1.3,5.7
	c-1,1.5-2.4,2.7-4,3.4c1.9,0.6,3.5,1.9,4.7,3.5c1.1,1.9,1.6,4,1.5,6.2v1.4c0,4-1.3,7-3.8,9.1s-6.6,3.1-12.2,3.1h-8
	c-2.6,0-5.2,0-7.8-0.1l1.6-8.2c1.9,0,4.1,0.1,6.6,0.1h7.8c1.4,0.1,2.8-0.3,4-1.1c0.9-0.9,1.3-2.2,1.2-3.5v-1c0-1.7-0.4-2.9-1.3-3.6
	c-1.3-0.8-2.8-1.2-4.3-1.1h-12.3l1.5-8H378c3.3,0,4.9-1.4,4.9-4.2v-1c0.1-1.2-0.3-2.5-1.1-3.4c-1.1-0.8-2.4-1.2-3.8-1.1h-6.8
	c-2.5,0-5,0-7.6,0.1L365,59.3z"/>
<path class="st2" d="M415.6,103.6c-2.7,0-5.4-0.2-8-0.8c-1.9-0.4-3.7-1.3-5.1-2.7c-1.3-1.4-2.3-3-2.7-4.9c-0.6-2.5-0.8-5-0.8-7.5v-3
	c-0.1-2.5,0.2-5.1,0.9-7.5c0.5-1.9,1.4-3.6,2.7-5c1.3-1.3,2.9-2.3,4.7-2.8c2.2-0.6,4.4-0.9,6.7-0.9c1.6,0,3.2,0.2,4.7,0.5
	c1.2,0.2,2.4,0.7,3.4,1.4V55.2h10.4v41.7c0,2.5-0.6,4.3-1.7,5.2s-3,1.5-5.8,1.5L415.6,103.6L415.6,103.6z M422.1,95.5V83.4
	c0-1.1-0.1-2.3-0.3-3.4c-0.1-0.8-0.5-1.5-1-2.1c-0.6-0.5-1.3-0.9-2-1c-1-0.2-2-0.3-3-0.3c-1,0-2.1,0.1-3.1,0.3
	c-0.7,0.2-1.4,0.6-1.9,1.2c-0.5,0.7-0.9,1.5-0.9,2.3c-0.2,1.3-0.3,2.6-0.3,3.9v3.1c0,1.4,0.1,2.7,0.3,4.1c0.1,0.9,0.4,1.7,0.9,2.4
	c0.5,0.6,1.2,1,1.9,1.2c1,0.2,2.1,0.3,3.1,0.3L422.1,95.5L422.1,95.5z"/>
<polygon class="st3" points="51.7,71.8 43.8,86.4 68.5,81.2 67.4,68.5 "/>
</svg>
