<?xml version="1.0" encoding="utf-8"?>
<!-- Generator: Adobe Illustrator 21.1.0, SVG Export Plug-In . SVG Version: 6.00 Build 0)  -->
<svg version="1.1" id="Vrstva_1" xmlns="http://www.w3.org/2000/svg" xmlns:xlink="http://www.w3.org/1999/xlink" x="0px" y="0px"
	 viewBox="0 0 595.3 595.3" style="enable-background:new 0 0 595.3 595.3;" xml:space="preserve">
<style type="text/css">
	.st0{fill-rule:evenodd;clip-rule:evenodd;}
	.st1{fill-rule:evenodd;clip-rule:evenodd;fill:#FFFFFF;}
	.st2{fill:#FFFFFF;}
</style>
<polyline class="st0" points="148,240.9 88.1,347.6 186.7,328.2 "/>
<line class="st1" x1="150.4" y1="240.7" x2="188.7" y2="327.7"/>
<polyline class="st0" points="190.2,329.9 198,347.9 206.5,326.5 "/>
<polygon class="st0" points="91.2,349.4 195.9,349 187.7,330.5 "/>
<g>
	<path d="M230,325.5h-10.6v-47.4h32.2l-1.7,8.9h-20v10h19l-1.7,8.9H230V325.5z"/>
	<path d="M255.6,278h10.2v47.5h-10.2V278z"/>
	<path d="M287.8,291c3,0,5.5,0.3,7.6,0.8c2.1,0.5,3.8,1.4,5.1,2.6c1.3,1.2,2.2,2.9,2.8,4.9c0.6,2,0.9,4.6,0.9,7.7v3.5
		c0,3-0.3,5.6-0.9,7.6c-0.6,2-1.5,3.7-2.8,4.9c-1.3,1.2-3,2.1-5.1,2.7c-2.1,0.5-4.6,0.8-7.6,0.8c-3,0-5.5-0.3-7.6-0.8
		c-2.1-0.5-3.8-1.4-5.1-2.7c-1.3-1.2-2.3-2.9-2.9-4.9c-0.6-2-0.9-4.6-0.9-7.6V307c0-3.1,0.3-5.6,0.9-7.7c0.6-2,1.6-3.7,2.9-4.9
		c1.3-1.2,3-2.1,5.1-2.6C282.3,291.3,284.8,291,287.8,291z M294,306.7c0-1.7-0.1-3-0.3-4c-0.2-1-0.5-1.8-1-2.3
		c-0.5-0.5-1.1-0.9-1.9-1.1c-0.8-0.2-1.8-0.3-3-0.3c-1.2,0-2.3,0.1-3,0.3c-0.8,0.2-1.4,0.6-1.9,1.1c-0.5,0.5-0.8,1.3-1,2.3
		c-0.2,1-0.3,2.3-0.3,4v4.1c0,1.7,0.1,3,0.3,4c0.2,1,0.5,1.8,1,2.3c0.5,0.5,1.1,0.9,1.9,1.1c0.8,0.2,1.8,0.3,3,0.3
		c1.2,0,2.2-0.1,3-0.3c0.8-0.2,1.4-0.6,1.9-1.1c0.5-0.5,0.8-1.3,1-2.3c0.2-1,0.3-2.4,0.3-4V306.7z"/>
	<path d="M340.8,314.9l4.9-22.9h9.9l-9.7,33.5h-9.9l-5-21.1l-5.1,21.1h-10.2l-9.6-33.5h10.3l4.8,22.8l5.5-22.8h8.8L340.8,314.9z"/>
	<path d="M398.2,325.5h-25l1.5-7.9h6.7v-27.8h-8.1l1.5-7.9h16.9v35.6h8L398.2,325.5z"/>
	<path d="M417.2,309.8c-0.7,0.3-1.3,0.6-1.8,1c-0.5,0.3-0.8,0.7-1.1,1.2c-0.3,0.5-0.4,1-0.5,1.7c-0.1,0.7-0.2,1.4-0.2,2.3v1.3h20.5
		l-1.5,8.3h-29.2v-7.6c0-2.2,0.2-4.1,0.5-5.8c0.3-1.6,0.9-3,1.7-4.3c0.8-1.2,1.8-2.3,3-3.1c1.2-0.9,2.7-1.7,4.4-2.5l7-3.1
		c1.5-0.6,2.6-1.3,3.1-1.9c0.5-0.6,0.8-1.6,0.8-3c0-1.6-0.4-2.7-1.1-3.3c-0.7-0.6-2-0.9-3.8-0.9c-2.1,0-4.5,0-7.2,0
		c-2.7,0-5.2,0.1-7.6,0.1l1.4-8.2c2.1,0,4.5-0.1,7.1-0.1c2.6,0,5,0,7.2,0c5,0,8.6,1,10.8,2.9c2.2,1.9,3.3,4.7,3.3,8.3v1
		c0,2.9-0.6,5.4-1.9,7.4c-1.3,2-3.4,3.6-6.5,4.8L417.2,309.8z"/>
	<path d="M440.2,282c2.2,0,4.4-0.1,6.8-0.1c2.3,0,5,0,7.9,0c4.6,0,7.9,1,10,2.9c2.1,1.9,3.2,4.6,3.2,7.8v1.2c0,2.4-0.4,4.3-1.2,5.6
		c-0.8,1.4-2.1,2.5-3.9,3.3c2,0.8,3.6,1.9,4.6,3.4c1,1.5,1.5,3.5,1.5,6v1.4c0,3.9-1.3,6.9-3.8,8.9c-2.5,2-6.5,3-12,3
		c-2.7,0-5.3,0-7.8,0c-2.5,0-5.1,0-7.6-0.1l1.5-8.1c1.9,0,4,0.1,6.5,0.1c2.5,0,5,0,7.7,0c1.8,0,3.2-0.4,4-1.1
		c0.8-0.7,1.2-1.9,1.2-3.5v-1c0-1.7-0.4-2.9-1.2-3.6c-0.8-0.7-2.3-1.1-4.3-1.1H441l1.5-7.9h10.4c3.2,0,4.9-1.4,4.9-4.1v-1
		c0-1.5-0.4-2.7-1.1-3.4c-0.7-0.7-2-1.1-3.7-1.1c-2,0-4.2,0-6.7,0s-5,0-7.5,0.1L440.2,282z"/>
	<path d="M490,325.5c-3.2,0-5.8-0.3-7.8-0.8c-2.1-0.5-3.7-1.4-5-2.7c-1.3-1.2-2.1-2.8-2.7-4.8c-0.5-2-0.8-4.4-0.8-7.3v-2.9
		c0-2.9,0.3-5.4,0.9-7.4c0.6-2,1.5-3.7,2.7-4.9c1.2-1.3,2.7-2.2,4.6-2.8c1.9-0.6,4-0.9,6.6-0.9c1.6,0,3.1,0.2,4.6,0.5
		c1.4,0.3,2.5,0.8,3.4,1.4v-15h10.2v41c0,2.5-0.5,4.2-1.6,5.2c-1.1,1-3,1.4-5.7,1.4H490z M496.3,317.5v-11.9c0-1.4-0.1-2.5-0.3-3.3
		c-0.2-0.9-0.5-1.5-1-2c-0.5-0.5-1.1-0.8-1.9-1c-0.8-0.2-1.8-0.3-3-0.3c-1.2,0-2.3,0.1-3,0.3c-0.8,0.2-1.4,0.6-1.9,1.2
		c-0.4,0.6-0.8,1.3-0.9,2.3c-0.2,1-0.3,2.3-0.3,3.8v3.1c0,1.7,0.1,3,0.3,4c0.2,1,0.5,1.8,0.9,2.4c0.4,0.6,1.1,1,1.9,1.2
		c0.8,0.2,1.8,0.3,3.1,0.3H496.3z"/>
</g>
<g>
	<polygon class="st2" points="130.4,323.8 130.3,323.8 130.4,323.8 	"/>
	<polygon class="st2" points="118.7,318.7 110.9,333.4 150.7,325.3 149.5,312.7 	"/>
</g>
<g>
	<polygon class="st2" points="145.8,268.6 137,285.1 147.1,283.1 146,270 	"/>
</g>
<polygon class="st0" points="189.1,327.7 206.2,324.2 150.2,240 "/>
<g>
	<path d="M230,325.5h-10.6v-47.4h32.2l-1.7,8.9h-20v10h19l-1.7,8.9H230V325.5z"/>
	<path d="M255.6,278h10.2v47.5h-10.2V278z"/>
	<path d="M287.8,291c3,0,5.5,0.3,7.6,0.8c2.1,0.5,3.8,1.4,5.1,2.6c1.3,1.2,2.2,2.9,2.8,4.9c0.6,2,0.9,4.6,0.9,7.7v3.5
		c0,3-0.3,5.6-0.9,7.6c-0.6,2-1.5,3.7-2.8,4.9c-1.3,1.2-3,2.1-5.1,2.7c-2.1,0.5-4.6,0.8-7.6,0.8c-3,0-5.5-0.3-7.6-0.8
		c-2.1-0.5-3.8-1.4-5.1-2.7c-1.3-1.2-2.3-2.9-2.9-4.9c-0.6-2-0.9-4.6-0.9-7.6V307c0-3.1,0.3-5.6,0.9-7.7c0.6-2,1.6-3.7,2.9-4.9
		c1.3-1.2,3-2.1,5.1-2.6C282.3,291.3,284.8,291,287.8,291z M294,306.7c0-1.7-0.1-3-0.3-4c-0.2-1-0.5-1.8-1-2.3
		c-0.5-0.5-1.1-0.9-1.9-1.1c-0.8-0.2-1.8-0.3-3-0.3c-1.2,0-2.3,0.1-3,0.3c-0.8,0.2-1.4,0.6-1.9,1.1c-0.5,0.5-0.8,1.3-1,2.3
		c-0.2,1-0.3,2.3-0.3,4v4.1c0,1.7,0.1,3,0.3,4c0.2,1,0.5,1.8,1,2.3c0.5,0.5,1.1,0.9,1.9,1.1c0.8,0.2,1.8,0.3,3,0.3
		c1.2,0,2.2-0.1,3-0.3c0.8-0.2,1.4-0.6,1.9-1.1c0.5-0.5,0.8-1.3,1-2.3c0.2-1,0.3-2.4,0.3-4V306.7z"/>
	<path d="M340.8,314.9l4.9-22.9h9.9l-9.7,33.5h-9.9l-5-21.1l-5.1,21.1h-10.2l-9.6-33.5h10.3l4.8,22.8l5.5-22.8h8.8L340.8,314.9z"/>
	<path d="M398.2,325.5h-25l1.5-7.9h6.7v-27.8h-8.1l1.5-7.9h16.9v35.6h8L398.2,325.5z"/>
	<path d="M417.2,309.8c-0.7,0.3-1.3,0.6-1.8,1c-0.5,0.3-0.8,0.7-1.1,1.2c-0.3,0.5-0.4,1-0.5,1.7c-0.1,0.7-0.2,1.4-0.2,2.3v1.3h20.5
		l-1.5,8.3h-29.2v-7.6c0-2.2,0.2-4.1,0.5-5.8c0.3-1.6,0.9-3,1.7-4.3c0.8-1.2,1.8-2.3,3-3.1c1.2-0.9,2.7-1.7,4.4-2.5l7-3.1
		c1.5-0.6,2.6-1.3,3.1-1.9c0.5-0.6,0.8-1.6,0.8-3c0-1.6-0.4-2.7-1.1-3.3c-0.7-0.6-2-0.9-3.8-0.9c-2.1,0-4.5,0-7.2,0
		c-2.7,0-5.2,0.1-7.6,0.1l1.4-8.2c2.1,0,4.5-0.1,7.1-0.1c2.6,0,5,0,7.2,0c5,0,8.6,1,10.8,2.9c2.2,1.9,3.3,4.7,3.3,8.3v1
		c0,2.9-0.6,5.4-1.9,7.4c-1.3,2-3.4,3.6-6.5,4.8L417.2,309.8z"/>
	<path d="M440.2,282c2.2,0,4.4-0.1,6.8-0.1c2.3,0,5,0,7.9,0c4.6,0,7.9,1,10,2.9c2.1,1.9,3.2,4.6,3.2,7.8v1.2c0,2.4-0.4,4.3-1.2,5.6
		c-0.8,1.4-2.1,2.5-3.9,3.3c2,0.8,3.6,1.9,4.6,3.4c1,1.5,1.5,3.5,1.5,6v1.4c0,3.9-1.3,6.9-3.8,8.9c-2.5,2-6.5,3-12,3
		c-2.7,0-5.3,0-7.8,0c-2.5,0-5.1,0-7.6-0.1l1.5-8.1c1.9,0,4,0.1,6.5,0.1c2.5,0,5,0,7.7,0c1.8,0,3.2-0.4,4-1.1
		c0.8-0.7,1.2-1.9,1.2-3.5v-1c0-1.7-0.4-2.9-1.2-3.6c-0.8-0.7-2.3-1.1-4.3-1.1H441l1.5-7.9h10.4c3.2,0,4.9-1.4,4.9-4.1v-1
		c0-1.5-0.4-2.7-1.1-3.4c-0.7-0.7-2-1.1-3.7-1.1c-2,0-4.2,0-6.7,0s-5,0-7.5,0.1L440.2,282z"/>
	<path d="M490,325.5c-3.2,0-5.8-0.3-7.8-0.8c-2.1-0.5-3.7-1.4-5-2.7c-1.3-1.2-2.1-2.8-2.7-4.8c-0.5-2-0.8-4.4-0.8-7.3v-2.9
		c0-2.9,0.3-5.4,0.9-7.4c0.6-2,1.5-3.7,2.7-4.9c1.2-1.3,2.7-2.2,4.6-2.8c1.9-0.6,4-0.9,6.6-0.9c1.6,0,3.1,0.2,4.6,0.5
		c1.4,0.3,2.5,0.8,3.4,1.4v-15h10.2v41c0,2.5-0.5,4.2-1.6,5.2c-1.1,1-3,1.4-5.7,1.4H490z M496.3,317.5v-11.9c0-1.4-0.1-2.5-0.3-3.3
		c-0.2-0.9-0.5-1.5-1-2c-0.5-0.5-1.1-0.8-1.9-1c-0.8-0.2-1.8-0.3-3-0.3c-1.2,0-2.3,0.1-3,0.3c-0.8,0.2-1.4,0.6-1.9,1.2
		c-0.4,0.6-0.8,1.3-0.9,2.3c-0.2,1-0.3,2.3-0.3,3.8v3.1c0,1.7,0.1,3,0.3,4c0.2,1,0.5,1.8,0.9,2.4c0.4,0.6,1.1,1,1.9,1.2
		c0.8,0.2,1.8,0.3,3.1,0.3H496.3z"/>
</g>
<g>
	<path class="st2" d="M140.7,286.6"/>
	<polygon class="st2" points="142.3,298.5 142.3,298.5 142.3,298.5 	"/>
	<polygon class="st2" points="132.2,294.2 124.4,308.5 148.7,303.5 147.6,291 	"/>
</g>
</svg>
